<svg xmlns="http://www.w3.org/2000/svg" viewBox="0 0 120 80"><rect width="120" height="80" fill="#F5F6F8"/><rect x="30" y="6" width="60" height="5" rx="2.5" fill="#1D3C9B"/><g><rect x="36" y="15" width="48" height="10" rx="5" fill="#FFFFFF" stroke="#E2E7F0"/><circle cx="44" cy="20" r="3" fill="#4285F4"/><rect x="50" y="18" width="16" height="2" rx="1" fill="#1D3C9B"/><rect x="50" y="22" width="10" height="2" rx="1" fill="#C6D2F2"/><rect x="70" y="18" width="10" height="4" rx="2" fill="#F5A31E"/></g><g><rect x="5" y="32" width="34" height="40" rx="3" fill="#FFFFFF" stroke="#E2E7F0"/><g fill="#F5A31E"><rect x="12" y="38" width="4" height="4" rx="1"/><rect x="17" y="38" width="4" height="4" rx="1"/><rect x="22" y="38" width="4" height="4" rx="1"/><rect x="27" y="38" width="4" height="4" rx="1"/><rect x="32" y="38" width="3" height="4" rx="1"/></g><rect x="10" y="47" width="24" height="2" rx="1" fill="#1B2A4A"/><rect x="10" y="52" width="20" height="2" rx="1" fill="#1B2A4A"/><rect x="10" y="57" width="22" height="2" rx="1" fill="#1B2A4A"/><rect x="13" y="65" width="18" height="2" rx="1" fill="#C6D2F2"/></g><g><rect x="43" y="32" width="34" height="40" rx="3" fill="#FFFFFF" stroke="#E2E7F0"/><g fill="#F5A31E"><rect x="50" y="38" width="4" height="4" rx="1"/><rect x="55" y="38" width="4" height="4" rx="1"/><rect x="60" y="38" width="4" height="4" rx="1"/><rect x="65" y="38" width="4" height="4" rx="1"/><rect x="70" y="38" width="3" height="4" rx="1"/></g><rect x="48" y="47" width="24" height="2" rx="1" fill="#1B2A4A"/><rect x="48" y="52" width="20" height="2" rx="1" fill="#1B2A4A"/><rect x="48" y="57" width="22" height="2" rx="1" fill="#1B2A4A"/><rect x="51" y="65" width="18" height="2" rx="1" fill="#C6D2F2"/></g><g><rect x="81" y="32" width="34" height="40" rx="3" fill="#FFFFFF" stroke="#E2E7F0"/><g fill="#F5A31E"><rect x="88" y="38" width="4" height="4" rx="1"/><rect x="93" y="38" width="4" height="4" rx="1"/><rect x="98" y="38" width="4" height="4" rx="1"/><rect x="103" y="38" width="4" height="4" rx="1"/><rect x="108" y="38" width="3" height="4" rx="1"/></g><rect x="86" y="47" width="24" height="2" rx="1" fill="#1B2A4A"/><rect x="86" y="52" width="20" height="2" rx="1" fill="#1B2A4A"/><rect x="86" y="57" width="22" height="2" rx="1" fill="#1B2A4A"/><rect x="89" y="65" width="18" height="2" rx="1" fill="#C6D2F2"/></g></svg>
