<svg xmlns="http://www.w3.org/2000/svg" viewBox="0 0 1000 667" role="img"
     aria-label="Emplacement de la photo de chantier">
    <!-- Placeholder drawn in the shape of the composite photo: one file, a wide
         view across the top and two views below it. Replace the whole image
         from the editor; nothing here is layout, so the swap is exact. -->
    <rect width="1000" height="667" fill="#FFFFFF"/>
    <rect x="2" y="2" width="996" height="322" rx="10" fill="#EEF2FE" stroke="#C6D2F2" stroke-width="2"/>
    <rect x="2" y="336" width="490" height="329" rx="10" fill="#E4EBFB" stroke="#C6D2F2" stroke-width="2"/>
    <rect x="506" y="336" width="492" height="329" rx="10" fill="#E4EBFB" stroke="#C6D2F2" stroke-width="2"/>
    <g fill="none" stroke="#8FA6E8" stroke-width="6" stroke-linecap="round" stroke-linejoin="round">
        <path d="M300 130 h330 l60 130 H240 Z"/>
        <path d="M270 195 h390 M465 130 v130"/>
        <path d="M120 470 h250 l40 90 H80 Z"/>
        <path d="M100 515 h290 M245 470 v90"/>
        <path d="M620 470 h250 l40 90 H580 Z"/>
        <path d="M600 515 h290 M745 470 v90"/>
    </g>
    <g fill="none" stroke="#F5A31E" stroke-width="6" stroke-linecap="round">
        <circle cx="810" cy="95" r="30"/>
        <path d="M810 40 v16 M810 134 v16 M755 95 h16 M849 95 h16
                 M772 57 l11 11 M837 122 l11 11 M849 57 l-11 11 M783 122 l-11 11"/>
    </g>
    <text x="500" y="632" text-anchor="middle" font-family="Inter, Arial, sans-serif"
          font-size="26" fill="#8FA6E8">Photo à remplacer</text>
</svg>
